<svg xmlns="http://www.w3.org/2000/svg" width="40" height="40" viewBox="0 -0.5 18 18"><path fill-rule="evenodd" d="M1.188 15.776h6.655L4.55 12.483l-3.174 3.174a.506.506 0 0 1-.188.119ZM1 14.619V3.776h12v7.193l-2.342-2.342a.504.504 0 0 0-.752.054l-3.872 3.872-1.115-1.115a.505.505 0 0 0-.411-.143.51.51 0 0 0-.333.149L1 14.619Zm8.257 1.157H13v-3.399l-.003.003-2.688-2.688-3.568 3.568 2.516 2.516Zm4.743-.37.96.136a1.006 1.006 0 0 0 1.138-.857l1.668-11.87a1.006 1.006 0 0 0-.857-1.137L5.039.01a1.006 1.006 0 0 0-1.137.857l-.268 1.909H1.007C.45 2.776 0 3.226 0 3.783v11.986c0 .557.45 1.007 1.007 1.007h11.986c.557 0 1.007-.45 1.007-1.007v-.362Zm0-1.009 1.107.156 1.67-11.884L4.893 1l-.25 1.777h8.35c.556 0 1.007.45 1.007 1.007v10.614Z"/></svg>
